<svg width="125" height="125" viewBox="0 0 125 125" fill="none" xmlns="http://www.w3.org/2000/svg">
<path d="M102.216 16.0555C103.203 16.0555 104.169 16.1376 105.106 16.2938L105.11 16.2947C105.223 16.3133 105.351 16.4005 105.413 16.5682L105.436 16.6453L106.345 20.7957L106.482 21.4207L107.073 21.6649C108.12 22.0955 109.103 22.6659 109.993 23.3504L110.499 23.7391L111.108 23.5457L115.158 22.2596V22.2586C115.36 22.1944 115.54 22.2647 115.627 22.367C116.178 23.0339 116.681 23.7407 117.128 24.4861L117.461 25.0604C117.799 25.6721 118.098 26.3006 118.358 26.9481L118.513 27.3699C118.562 27.5036 118.532 27.6899 118.378 27.8279L118.372 27.8328L115.224 30.6981L114.75 31.1277L114.834 31.7625C114.908 32.3158 114.948 32.8805 114.948 33.449C114.947 34.0174 114.908 34.5815 114.834 35.1346L114.75 35.7693L115.224 36.199L118.372 39.0643L118.378 39.0692C118.531 39.2065 118.562 39.3917 118.514 39.5252C118.218 40.3242 117.862 41.0928 117.449 41.8377L117.121 42.4031C116.674 43.1487 116.172 43.8553 115.62 44.5223L115.617 44.5262C115.538 44.6235 115.364 44.6982 115.152 44.6307H115.151L111.101 43.3436L110.492 43.1502L109.986 43.5399C109.095 44.2242 108.113 44.7949 107.067 45.2254L106.474 45.4686L106.337 46.0936L105.429 50.2449C105.381 50.4632 105.232 50.5743 105.102 50.5955L105.098 50.5965C104.161 50.7527 103.195 50.8338 102.208 50.8338C101.222 50.8338 100.257 50.7526 99.3196 50.5965L99.3147 50.5955L99.2659 50.5828C99.1663 50.55 99.0645 50.4658 99.011 50.3221L98.9885 50.2449L98.0793 46.0936L97.9426 45.4686L97.3508 45.2254L96.9612 45.0574C96.0598 44.6504 95.2101 44.1388 94.4309 43.5399L93.9241 43.1492L93.3137 43.3445L89.2708 44.6385C89.0936 44.694 88.934 44.6463 88.8391 44.5643L88.802 44.5272C88.3893 44.0277 88.0039 43.5062 87.6487 42.9627L87.303 42.4109L86.97 41.8367C86.6632 41.2818 86.3874 40.7137 86.1448 40.1297L85.9104 39.533C85.8621 39.3994 85.8941 39.2145 86.0471 39.077L86.052 39.0711L89.2004 36.2068L89.6731 35.7772L89.5901 35.1443C89.5165 34.5823 89.4768 34.0172 89.4768 33.449C89.4768 32.8805 89.5168 32.3158 89.5901 31.7625L89.6741 31.1277L89.2004 30.6981L86.052 27.8328L86.0471 27.8279L85.9944 27.7742C85.8862 27.6443 85.8684 27.4869 85.9114 27.3699L85.9104 27.369C86.133 26.7672 86.3913 26.1832 86.6809 25.6131L86.9817 25.0467L87.303 24.494C87.7503 23.7484 88.2527 23.0418 88.804 22.3748L88.8069 22.3709C88.8866 22.2736 89.0602 22.1989 89.2727 22.2664H89.2737L93.3235 23.5535L93.9319 23.7469L94.4387 23.3572C95.3291 22.6729 96.3112 22.1022 97.3577 21.6717L97.9504 21.4285L98.0872 20.8035L98.9963 16.6512L98.9954 16.6502C99.0438 16.4332 99.1929 16.3227 99.3225 16.3016L99.3352 16.2996C100.267 16.1376 101.229 16.0555 102.216 16.0555ZM102.216 26.409C100.349 26.409 98.5586 27.1514 97.2385 28.4715C95.9185 29.7916 95.177 31.5822 95.177 33.449C95.1771 35.3157 95.9186 37.1056 97.2385 38.4256C98.5586 39.7457 100.349 40.4881 102.216 40.4881C104.083 40.488 105.874 39.7456 107.194 38.4256C108.513 37.1056 109.255 35.3156 109.255 33.449C109.255 31.5823 108.513 29.7916 107.194 28.4715C105.874 27.1514 104.083 26.4091 102.216 26.409Z" stroke="#0066CC" stroke-width="2.44411"/>
<path d="M15.5256 58.6027H79.3479C84.5399 58.6027 88.7629 62.8257 88.7629 68.0177V83.9738C88.7627 86.2404 86.933 88.0695 84.6663 88.0695H78.1262V99.9288C78.1262 105.121 73.9031 109.344 68.7112 109.344H26.1633C20.9713 109.344 16.7483 105.121 16.7483 99.9288V88.0695H10.2073C7.94059 88.0694 6.1108 86.2404 6.1106 83.9738V68.0177C6.11068 62.8258 10.3338 58.6028 15.5256 58.6027ZM24.9407 101.151H69.9329V82.7511H24.9407V101.151ZM76.6887 65.4659C75.3068 65.4659 73.9814 66.0152 73.0042 66.9923C72.027 67.9695 71.4778 69.2949 71.4778 70.6769C71.4778 72.0589 72.027 73.3842 73.0042 74.3615C73.9814 75.3387 75.3067 75.8878 76.6887 75.8878C78.0707 75.8878 79.3961 75.3387 80.3733 74.3615C81.3504 73.3842 81.8997 72.0588 81.8997 70.6769C81.8996 69.2949 81.3505 67.9695 80.3733 66.9923C79.3961 66.0151 78.0707 65.466 76.6887 65.4659ZM69.9329 40.4708L69.5754 40.1124L64.7053 35.2423L64.3469 34.8849H24.9407V50.84H16.7483V36.1066C16.7484 30.9146 20.9714 26.6915 26.1633 26.6915H63.8411C66.3451 26.6915 68.7429 27.6784 70.5061 29.4415L75.3762 34.3116C77.1394 36.0749 78.1262 38.4726 78.1262 40.9767V50.84H69.9329V40.4708Z" stroke="#0066CC" stroke-width="2.44411"/>
</svg>
