<svg width="126" height="125" viewBox="0 0 126 125" fill="none" xmlns="http://www.w3.org/2000/svg">
<path d="M20.4229 62.4944H79.0811C83.7984 62.4944 87.6356 66.3308 87.6357 71.0481V85.7131C87.6357 87.742 85.9986 89.3792 83.9697 89.3792H77.8594V100.377C77.8594 105.095 74.0221 108.932 69.3047 108.932H30.1992C25.4819 108.932 21.6445 105.095 21.6445 100.377V89.3792H15.5352C13.5063 89.3792 11.8682 87.742 11.8682 85.7131V71.0481C11.8683 66.3308 15.7056 62.4944 20.4229 62.4944ZM28.9775 101.6H70.5273V84.4905H28.9775V101.6ZM76.6377 68.6047C75.3413 68.6047 74.0974 69.1197 73.1807 70.0364C72.2642 70.9531 71.749 72.1962 71.749 73.4924C71.749 74.7887 72.2642 76.0318 73.1807 76.9485C74.0974 77.8652 75.3413 78.3811 76.6377 78.3811C77.934 78.381 79.1771 77.8651 80.0938 76.9485C81.0104 76.0318 81.5254 74.7888 81.5254 73.4924C81.5254 72.1961 81.0104 70.9531 80.0938 70.0364C79.1771 69.1197 77.934 68.6048 76.6377 68.6047ZM70.5273 45.6887L65.3359 40.4973H28.9775V55.1614H21.6445V41.719C21.6446 37.0017 25.4819 33.1644 30.1992 33.1643H64.8291C67.1046 33.1643 69.2829 34.0615 70.8848 35.6633L75.3613 40.1389C76.9631 41.7407 77.8593 43.9192 77.8594 46.1946V55.1614H70.5273V45.6887Z" stroke="#0066CC" stroke-width="2.44411"/>
<path d="M99.2458 24.3045H100.162C102.02 24.3045 103.522 25.808 103.522 27.6658C103.522 27.8877 103.503 28.135 103.445 28.3904L103.352 28.7977C104.057 28.6548 104.779 28.5818 105.509 28.5818C108.385 28.5819 111.144 29.7247 113.177 31.7586C115.211 33.7926 116.354 36.5511 116.354 39.4276C116.354 42.304 115.211 45.0625 113.177 47.0965C111.144 49.1305 108.385 50.2732 105.509 50.2733C102.632 50.2733 99.8736 49.1305 97.8396 47.0965C96.5399 45.7968 95.6056 44.2008 95.0994 42.4676L94.4675 42.7615C93.9434 43.0046 93.3953 43.21 92.8298 43.3758V46.9129C92.8297 48.7705 91.327 50.273 89.4695 50.2733C87.6117 50.2733 86.1083 48.7707 86.1082 46.9129V43.3758C81.1659 41.9255 77.5544 37.3557 77.5544 31.9422V30.7957C76.3022 30.3075 75.416 29.0921 75.4158 27.6658C75.4158 25.808 76.9183 24.3045 78.7761 24.3045H79.6921V16.9725C79.6921 15.1146 81.1956 13.6121 83.0535 13.6121C84.9112 13.6122 86.4138 15.1147 86.4138 16.9725V24.3045H92.5242V16.9725C92.5242 15.1147 94.0268 13.6123 95.8845 13.6121C97.7424 13.6121 99.2458 15.1146 99.2458 16.9725V24.3045Z" stroke="#0066CC" stroke-width="2.44411"/>
</svg>
