<svg width="126" height="125" viewBox="0 0 126 125" fill="none" xmlns="http://www.w3.org/2000/svg">
<path d="M99.6379 35.5789C100.42 35.5789 101.159 35.8754 101.695 36.3856C102.228 36.8938 102.517 37.57 102.517 38.2615C102.517 38.9529 102.228 39.6285 101.695 40.1365C101.159 40.6467 100.42 40.9432 99.6379 40.9432C98.8558 40.9431 98.117 40.6466 97.5813 40.1365C97.0479 39.6285 96.7601 38.9529 96.76 38.2615C96.76 37.57 97.0477 36.8937 97.5813 36.3856C98.117 35.8755 98.8558 35.579 99.6379 35.5789ZM99.6379 25.8172C103.886 25.8172 107.776 27.2767 110.777 29.6873L111.064 29.9236C111.384 30.1957 111.399 30.6289 111.135 30.9129C110.851 31.2181 110.345 31.2731 109.988 31.032L109.918 30.9793C107.166 28.6701 103.573 27.2797 99.6448 27.2781C95.7087 27.2781 92.1125 28.6682 89.3645 30.9793C89.0023 31.2827 88.4493 31.2391 88.1506 30.9158C87.8757 30.6179 87.8999 30.1905 88.217 29.9246L88.219 29.9227C91.2498 27.3725 95.2524 25.8172 99.6379 25.8172ZM99.6379 16.0555C107.043 16.0555 113.752 18.8371 118.681 23.3494H118.682C118.981 23.6236 118.988 24.0559 118.703 24.3377C118.408 24.6304 117.901 24.6641 117.556 24.41L117.49 24.3553C112.847 20.1154 106.558 17.5164 99.6379 17.5164C92.8924 17.5165 86.7474 19.9864 82.1418 24.0379H82.1243L81.7737 24.3621C81.44 24.6698 80.8858 24.6565 80.5696 24.3406C80.2807 24.052 80.2874 23.6206 80.592 23.3397L80.5911 23.3387C85.5264 18.8339 92.2357 16.0555 99.6379 16.0555Z" stroke="#0066CC" stroke-width="2.44411"/>
<path d="M19.0051 56.7127H84.6018C89.9568 56.7128 94.3125 61.0678 94.3127 66.4227V82.8221C94.3127 85.1707 92.4163 87.0662 90.0676 87.0662H83.3792V99.2215C83.3791 104.577 79.0242 108.932 73.6692 108.932H29.9377C24.5827 108.932 20.2279 104.577 20.2278 99.2215V87.0662H13.5393C11.1906 87.0662 9.29419 85.1707 9.29419 82.8221V66.4227C9.29445 61.0678 13.6502 56.7128 19.0051 56.7127ZM28.7161 100.443H74.8909V81.6004H28.7161V100.443ZM81.8684 63.8348C80.457 63.8348 79.1037 64.3954 78.1057 65.3934C77.1077 66.3913 76.5472 67.7447 76.5471 69.1561C76.5471 70.5675 77.1077 71.9217 78.1057 72.9197C79.1037 73.9176 80.4571 74.4783 81.8684 74.4783C83.2797 74.4783 84.6331 73.9175 85.6311 72.9197C86.6291 71.9217 87.1907 70.5675 87.1907 69.1561C87.1906 67.7447 86.6291 66.3913 85.6311 65.3934C84.6331 64.3954 83.2798 63.8348 81.8684 63.8348ZM74.8909 38.1238L69.1702 32.4031H28.7161V48.8016H20.2278V33.6248C20.2278 28.2698 24.5827 23.914 29.9377 23.9139H68.6633C71.2461 23.9139 73.7196 24.9321 75.5383 26.7508L80.5432 31.7557C82.3618 33.5743 83.3791 36.0471 83.3792 38.6297V48.8016H74.8909V38.1238Z" stroke="#0066CC" stroke-width="2.44411"/>
</svg>
