<svg width="126" height="125" viewBox="0 0 126 125" fill="none" xmlns="http://www.w3.org/2000/svg">
<path d="M12.8308 30.4151C12.8308 24.5172 17.7021 19.7221 23.6935 19.7221H50.8503V41.1081C50.8503 44.0653 53.2774 46.4545 56.2816 46.4545H78.007V52.9037C65.464 56.3957 56.2816 67.7402 56.2816 81.2067C56.2816 91.081 61.2208 99.8025 68.7907 105.149C68.2476 105.232 67.7044 105.266 67.1443 105.266H23.6935C17.7021 105.266 12.8308 100.471 12.8308 94.5729V30.4151ZM78.007 41.1081H56.2816V19.7221L78.007 41.1081ZM86.1541 57.1475C92.6362 57.1475 98.8529 59.6823 103.437 64.1943C108.02 68.7063 110.595 74.8258 110.595 81.2067C110.595 87.5876 108.02 93.7071 103.437 98.2191C98.8529 102.731 92.6362 105.266 86.1541 105.266C79.6719 105.266 73.4552 102.731 68.8716 98.2191C64.288 93.7071 61.713 87.5876 61.713 81.2067C61.713 74.8258 64.288 68.7063 68.8716 64.1943C73.4552 59.6823 79.6719 57.1475 86.1541 57.1475ZM86.1541 97.2462C87.2344 97.2462 88.2705 96.8237 89.0345 96.0717C89.7984 95.3197 90.2276 94.2998 90.2276 93.2363C90.2276 92.1728 89.7984 91.1529 89.0345 90.4009C88.2705 89.6489 87.2344 89.2264 86.1541 89.2264C85.0737 89.2264 84.0376 89.6489 83.2737 90.4009C82.5097 91.1529 82.0806 92.1728 82.0806 93.2363C82.0806 94.2998 82.5097 95.3197 83.2737 96.0717C84.0376 96.8237 85.0737 97.2462 86.1541 97.2462ZM86.1541 65.1672C84.6604 65.1672 83.4384 66.3702 83.4384 67.8405V81.2067C83.4384 82.677 84.6604 83.88 86.1541 83.88C87.6477 83.88 88.8697 82.677 88.8697 81.2067V67.8405C88.8697 66.3702 87.6477 65.1672 86.1541 65.1672Z" stroke="#0066CC" stroke-width="2.44411"/>
</svg>
