<svg width="126" height="125" viewBox="0 0 126 125" fill="none" xmlns="http://www.w3.org/2000/svg">
<path d="M100.904 16.0563C105.461 16.0564 109.831 17.8657 113.053 21.0876C116.275 24.3096 118.085 28.6804 118.085 33.237C118.085 37.7934 116.275 42.1635 113.053 45.3854C109.831 48.6073 105.461 50.4176 100.904 50.4177C96.3477 50.4177 91.9769 48.6074 88.7549 45.3854C85.533 42.1635 83.7237 37.7934 83.7236 33.237C83.7236 28.6804 85.5329 24.3096 88.7549 21.0876C91.9769 17.8656 96.3477 16.0563 100.904 16.0563ZM96.9141 28.4743C96.4858 28.4744 96.1417 28.8185 96.1416 29.2468V37.2263C96.1416 37.6547 96.4857 37.9986 96.9141 37.9987C97.3425 37.9987 97.6875 37.6547 97.6875 37.2263V29.2468C97.6874 28.8184 97.3425 28.4743 96.9141 28.4743ZM104.894 28.4743C104.465 28.4743 104.121 28.8184 104.121 29.2468V37.2263C104.121 37.6547 104.465 37.9987 104.894 37.9987C105.322 37.9987 105.666 37.6547 105.666 37.2263V29.2468C105.666 28.8184 105.322 28.4743 104.894 28.4743Z" stroke="#0066CC" stroke-width="2.44411"/>
<path d="M18.4509 55.7372H82.2859C87.479 55.7374 91.7029 59.9611 91.7029 65.1542V81.1122C91.7029 83.3797 89.8727 85.2099 87.6052 85.2099H81.0632V97.0712C81.0631 102.264 76.8394 106.488 71.6462 106.488H29.0906C23.8975 106.488 19.6737 102.264 19.6736 97.0712V85.2099H13.1316C10.8642 85.2098 9.03394 83.3796 9.03394 81.1122V65.1542C9.03394 59.9612 13.2579 55.7375 18.4509 55.7372ZM27.8679 98.2929H72.8689V79.8906H27.8679V98.2929ZM79.6257 62.6015C78.2436 62.6015 76.9185 63.1515 75.9412 64.1288C74.9638 65.1062 74.4139 66.4313 74.4138 67.8134C74.4138 69.1956 74.9638 70.5216 75.9412 71.499C76.9185 72.4761 78.2437 73.0253 79.6257 73.0253C81.008 73.0253 82.3339 72.4763 83.3113 71.499C84.2887 70.5216 84.8376 69.1956 84.8376 67.8134C84.8376 66.4314 84.2884 65.1062 83.3113 64.1288C82.3339 63.1515 81.008 62.6015 79.6257 62.6015ZM72.8689 37.6015L67.282 32.0146H27.8679V47.9736H19.6736V33.2363C19.6738 28.0433 23.8975 23.8193 29.0906 23.8193H66.7761C69.2807 23.8193 71.6785 24.8067 73.4421 26.5703L78.3132 31.4413C80.0767 33.205 81.0632 35.6028 81.0632 38.1074V47.9736H72.8689V37.6015Z" stroke="#0066CC" stroke-width="2.44411"/>
</svg>
