<svg width="125" height="125" viewBox="0 0 125 125" fill="none" xmlns="http://www.w3.org/2000/svg">
<path d="M16.2412 53.9163H82.2598C87.6538 53.9163 92.041 58.3035 92.041 63.6975V80.2024C92.0408 82.5704 90.1297 84.4817 87.7617 84.4817H81.0381V96.7063C81.0381 102.1 76.6508 106.488 71.2568 106.488H27.2441C21.8503 106.487 17.4639 102.1 17.4639 96.7063V84.4817H10.7402C8.37221 84.4817 6.46013 82.5704 6.45996 80.2024V63.6975C6.45996 58.3036 10.8473 53.9164 16.2412 53.9163ZM26.0225 97.929H72.4795V78.9797H26.0225V97.929ZM79.5098 61.0999C78.0913 61.0999 76.7305 61.6633 75.7275 62.6663C74.7246 63.6692 74.1611 65.0301 74.1611 66.4485C74.1612 67.8667 74.7247 69.2268 75.7275 70.2297C76.7305 71.2327 78.0913 71.7961 79.5098 71.7961C80.9281 71.7961 82.2881 71.2326 83.291 70.2297C84.2939 69.2268 84.8573 67.8668 84.8574 66.4485C84.8574 65.03 84.294 63.6692 83.291 62.6663C82.2881 61.6635 80.928 61.0999 79.5098 61.0999ZM72.4795 35.219L72.1211 34.8616L67.084 29.8235L66.7256 29.4661H26.0225V45.9709H17.4639V30.6877C17.464 25.294 21.8504 20.9067 27.2441 20.9065H66.2197C68.8211 20.9065 71.3117 21.9321 73.1436 23.7639L78.1807 28.801C80.0125 30.6328 81.038 33.1236 81.0381 35.7249V45.9709H72.4795V35.219Z" stroke="#0066CC" stroke-width="2.44411"/>
<path d="M104.266 16.0563C105.587 16.0565 106.833 16.7208 107.53 17.8522L121.457 40.447L121.582 40.6667C122.167 41.7793 122.125 43.1036 121.477 44.1813C120.788 45.3271 119.523 46.0074 118.193 46.0075H90.3394C89.0087 46.0075 87.7432 45.3273 87.0542 44.1813C86.3605 43.0276 86.3713 41.5927 87.0737 40.4499V40.4479L101 17.8522C101.697 16.7204 102.945 16.0563 104.266 16.0563ZM104.266 38.1481C104.024 38.1481 103.804 38.241 103.65 38.3874C103.498 38.5318 103.424 38.7141 103.424 38.8913C103.424 39.0685 103.498 39.2518 103.65 39.3962C103.804 39.5423 104.025 39.6345 104.266 39.6345C104.508 39.6344 104.729 39.5425 104.882 39.3962C105.034 39.2518 105.107 39.0685 105.107 38.8913C105.107 38.7143 105.034 38.5317 104.882 38.3874C104.729 38.2411 104.508 38.1482 104.266 38.1481ZM104.266 26.3591C104.027 26.3591 103.94 26.5249 103.94 26.611V33.488C103.94 33.5741 104.027 33.7399 104.266 33.7399C104.505 33.7397 104.591 33.5741 104.591 33.488V26.611C104.591 26.5249 104.505 26.3593 104.266 26.3591Z" stroke="#0066CC" stroke-width="2.44411"/>
</svg>
