<svg width="57" height="57" viewBox="0 0 57 57" fill="none" xmlns="http://www.w3.org/2000/svg">
<path d="M11.082 9.75H46.6533C49.0418 9.75014 50.9844 11.6935 50.9844 14.082V36.9492C50.9842 39.3376 49.0417 41.2801 46.6533 41.2803H31.6367L31.9668 42.2686L32.8164 44.8096L32.9883 45.3213H39.0303C40.0214 45.3213 40.8213 46.1211 40.8213 47.1123C40.8213 48.1035 40.0214 48.9033 39.0303 48.9033H18.7041C17.7129 48.9033 16.9131 48.1035 16.9131 47.1123C16.9131 46.1211 17.7129 45.3213 18.7041 45.3213H24.7461L24.918 44.8096L25.7676 42.2686L26.0977 41.2803H11.082C8.69349 41.2803 6.75013 39.3377 6.75 36.9492V14.082C6.75 11.6934 8.69341 9.75 11.082 9.75ZM10.332 32.6172H47.4033V13.332H10.332V32.6172Z" stroke="#1385FF" stroke-width="1.5"/>
</svg>
