<svg width="28" height="31" viewBox="0 0 28 31" fill="none" xmlns="http://www.w3.org/2000/svg">
<path fill-rule="evenodd" clip-rule="evenodd" d="M27.575 29.1764C27.5749 29.66 27.3828 30.1237 27.0408 30.4657C26.6989 30.8076 26.2352 30.9998 25.7516 31H1.82349C1.33987 31 0.876059 30.8079 0.534088 30.4659C0.192117 30.1239 0 29.6601 0 29.1765C0 28.6929 0.192117 28.2291 0.534088 27.8871C0.876059 27.5451 1.33987 27.353 1.82349 27.353H25.7516C26.2352 27.3532 26.6989 27.5453 27.0408 27.8873C27.3828 28.2292 27.5749 28.6928 27.575 29.1764ZM11.964 18.8931V1.82355C11.964 1.33992 12.1561 0.876088 12.4981 0.534106C12.8401 0.192124 13.3039 0 13.7876 0C14.2712 0 14.735 0.192124 15.077 0.534106C15.419 0.876088 15.6111 1.33992 15.6111 1.82355V18.8932L19.7949 14.7877C19.9658 14.62 20.1681 14.4875 20.3902 14.398C20.6123 14.3085 20.8499 14.2636 21.0893 14.2658C21.3288 14.2681 21.5654 14.3175 21.7858 14.4113C22.0061 14.505 22.2059 14.6412 22.3736 14.8121C22.5413 14.9831 22.6737 15.1853 22.7632 15.4074C22.8528 15.6295 22.8977 15.8671 22.8954 16.1065C22.8931 16.346 22.8437 16.5827 22.75 16.803C22.6563 17.0234 22.52 17.2231 22.3491 17.3908L15.0645 24.5385C14.7236 24.8731 14.265 25.0605 13.7874 25.0605C13.3097 25.0605 12.8511 24.8731 12.5102 24.5385L5.22562 17.3908C5.05467 17.2231 4.91843 17.0234 4.82467 16.803C4.73092 16.5826 4.68149 16.3459 4.6792 16.1065C4.67692 15.867 4.72182 15.6294 4.81135 15.4073C4.90089 15.1852 5.03329 14.9829 5.20101 14.8119C5.36872 14.641 5.56847 14.5047 5.78884 14.411C6.00921 14.3172 6.24589 14.2678 6.48536 14.2655C6.72483 14.2632 6.96241 14.3081 7.18453 14.3977C7.40665 14.4872 7.60896 14.6196 7.77991 14.7873L11.964 18.8931Z" fill="white"/>
</svg>
