<svg width="57" height="57" viewBox="0 0 57 57" fill="none" xmlns="http://www.w3.org/2000/svg">
<path d="M14.082 32.0762H44.5713C46.9599 32.0762 48.9033 34.0196 48.9033 36.4082V41.4902C48.9031 43.8787 46.9598 45.8213 44.5713 45.8213H14.082C11.6936 45.8213 9.75024 43.8787 9.75 41.4902V36.4082L9.75586 36.1855C9.87211 33.9 11.7681 32.0762 14.082 32.0762ZM34.4082 35.6582C33.5354 35.6582 32.6982 36.0049 32.0811 36.6221C31.464 37.2392 31.1172 38.0765 31.1172 38.9492C31.1173 39.8219 31.464 40.6593 32.0811 41.2764C32.6982 41.8934 33.5355 42.2402 34.4082 42.2402C35.2809 42.2402 36.1182 41.8934 36.7354 41.2764C37.3524 40.6593 37.6992 39.8219 37.6992 38.9492C37.6992 38.0765 37.3524 37.2392 36.7354 36.6221C36.1182 36.0049 35.281 35.6582 34.4082 35.6582ZM42.0303 35.6582C41.1577 35.6583 40.3212 36.0051 39.7041 36.6221C39.087 37.2392 38.7402 38.0764 38.7402 38.9492C38.7403 39.8219 39.087 40.6593 39.7041 41.2764C40.3211 41.8932 41.1578 42.2401 42.0303 42.2402C42.9029 42.2402 43.7403 41.8933 44.3574 41.2764C44.9745 40.6593 45.3212 39.8219 45.3213 38.9492C45.3213 38.0764 44.9746 37.2392 44.3574 36.6221C43.7403 36.005 42.903 35.6582 42.0303 35.6582ZM14.082 11.75H44.5713C46.9599 11.75 48.9033 13.6934 48.9033 16.082V29.2402C47.6392 28.4754 46.1571 28.0361 44.5713 28.0361H14.082C12.4963 28.0361 11.0141 28.4754 9.75 29.2402V16.082C9.75 13.6934 11.6934 11.75 14.082 11.75Z" stroke="#1385FF" stroke-width="1.5"/>
</svg>
