<svg width="57" height="57" viewBox="0 0 57 57" fill="none" xmlns="http://www.w3.org/2000/svg">
<path d="M29.3262 11.75C40.1391 11.75 48.9031 20.5133 48.9033 31.3262V40.2197C48.9031 43.3149 46.396 45.8213 43.3008 45.8213C41.611 45.8212 40.2402 44.4496 40.2402 42.7598V32.5967C40.2404 30.907 41.6111 29.5363 43.3008 29.5361C44.0594 29.5361 44.7722 29.6831 45.4277 29.9551L46.6191 30.4492L46.459 29.1689C45.3963 20.652 38.1336 14.0615 29.3262 14.0615C20.519 14.0617 13.257 20.6521 12.1943 29.1689L12.0361 30.4355L13.2197 29.957C13.8834 29.6888 14.5979 29.5362 15.3516 29.5361C17.0414 29.5361 18.4129 30.9069 18.4131 32.5967V42.7598C18.4131 44.4497 17.0415 45.8213 15.3516 45.8213C12.2566 45.821 9.75018 43.3147 9.75 40.2197V31.3262C9.75019 20.5134 18.5134 11.7502 29.3262 11.75Z" stroke="#1385FF" stroke-width="1.5"/>
</svg>
