<svg width="139" height="139" viewBox="0 0 139 139" fill="none" xmlns="http://www.w3.org/2000/svg">
<circle cx="69.068" cy="69.068" r="69.068" fill="white"/>
<path d="M32.3286 62.7886H77.5396C81.0207 62.7886 83.8521 65.6209 83.8521 69.1021V80.4048C83.852 81.8137 82.7161 82.9506 81.3071 82.9507H76.3179V91.7075C76.3178 95.1886 73.4855 98.02 70.0044 98.02H39.8638C36.3826 98.02 33.5504 95.1886 33.5503 91.7075V82.9507H28.561C27.152 82.9507 26.0152 81.8138 26.0151 80.4048V69.1021C26.0151 65.6209 28.8474 62.7886 32.3286 62.7886ZM38.6421 92.9292H71.2261V79.1831H38.6421V92.9292ZM75.6558 66.938C74.5822 66.938 73.5526 67.3645 72.7935 68.1235C72.0344 68.8826 71.6079 69.9123 71.6079 70.9858C71.6079 72.0593 72.0344 73.0891 72.7935 73.8481C73.5525 74.6072 74.5823 75.0337 75.6558 75.0337C76.7293 75.0337 77.759 74.6072 78.5181 73.8481C79.2771 73.0891 79.7036 72.0593 79.7036 70.9858C79.7036 69.9124 79.2771 68.8826 78.5181 68.1235C77.759 67.3645 76.7292 66.938 75.6558 66.938ZM71.2261 49.4399L67.061 45.2749H38.6421V56.5776H33.5503V46.4966C33.5503 43.0154 36.3826 40.1831 39.8638 40.1831H66.5542C68.2343 40.1831 69.8423 40.8453 71.0239 42.0269L74.4741 45.4771C75.6555 46.6586 76.3178 48.2659 76.3179 49.9458V56.5776H71.2261V49.4399Z" stroke="#0066CC" stroke-width="2.44411"/>
<rect x="89.7688" y="53.8986" width="22.3536" height="40.7718" rx="1.78" stroke="#0073E6" stroke-width="2.44"/>
<line x1="92.7988" y1="60.6678" x2="109.092" y2="60.6678" stroke="#0073E6" stroke-width="2.44"/>
<line x1="92.7988" y1="64.2097" x2="109.092" y2="64.2097" stroke="#0073E6" stroke-width="2.44"/>
<line x1="92.7988" y1="67.7516" x2="109.092" y2="67.7516" stroke="#0073E6" stroke-width="2.44"/>
<line x1="92.7988" y1="71.2935" x2="109.092" y2="71.2935" stroke="#0073E6" stroke-width="2.44"/>
<line x1="92.7988" y1="74.8355" x2="109.092" y2="74.8355" stroke="#0073E6" stroke-width="2.44"/>
<line x1="92.7988" y1="78.3775" x2="109.092" y2="78.3775" stroke="#0073E6" stroke-width="2.44"/>
<circle cx="101.3" cy="90.9317" r="1.41678" fill="#0073E6"/>
</svg>
