<svg width="57" height="57" viewBox="0 0 57 57" fill="none" xmlns="http://www.w3.org/2000/svg">
<path d="M14.082 24.9951H44.5713C46.9598 24.9951 48.9031 26.9377 48.9033 29.3262V36.9492C48.9032 37.9403 48.1034 38.7402 47.1123 38.7402H43.8213V44.5713C43.8213 46.9598 41.8787 48.9031 39.4902 48.9033H19.1631C16.7745 48.9032 14.832 46.9599 14.832 44.5713V38.7402H11.541C10.5499 38.7402 9.75013 37.9403 9.75 36.9492V29.3262C9.75019 26.9377 11.6935 24.9951 14.082 24.9951ZM18.4131 45.3213H40.2402V36.1992H18.4131V45.3213ZM43.3008 27.9414C42.5966 27.9415 41.9208 28.2208 41.4229 28.7188C40.9249 29.2167 40.6456 29.8925 40.6455 30.5967C40.6455 31.3009 40.925 31.9766 41.4229 32.4746C41.9208 32.9726 42.5966 33.2529 43.3008 33.2529C44.0051 33.2529 44.6807 32.9726 45.1787 32.4746C45.6767 31.9766 45.957 31.301 45.957 30.5967C45.957 29.8925 45.6767 29.2167 45.1787 28.7188C44.6807 28.2209 44.005 27.9414 43.3008 27.9414ZM40.2402 16.0977L40.0205 15.8779L37.6934 13.5518L37.4736 13.332H18.4131V20.9541H14.832V14.082C14.832 11.6935 16.7745 9.7501 19.1631 9.75H37.1631C38.3155 9.75 39.4186 10.204 40.2295 11.0146L42.5566 13.3418C43.3674 14.1527 43.8213 15.2557 43.8213 16.4082V20.9541H40.2402V16.0977Z" stroke="#1385FF" stroke-width="1.5"/>
</svg>
