<svg width="57" height="57" viewBox="0 0 57 57" fill="none" xmlns="http://www.w3.org/2000/svg">
<path d="M42.0077 26.3584L47.6623 10.7753C47.9911 9.92052 47.3335 9 46.413 9H10.9073C9.98674 9 9.32922 9.92052 9.72373 10.7753L15.3784 26.3584" stroke="#1385FF" stroke-width="1.5" stroke-miterlimit="10" stroke-linecap="round" stroke-linejoin="round"/>
<path d="M10.3813 39.7718L16.299 28.9885H41.0215L46.9391 39.7718" stroke="#1385FF" stroke-width="1.5" stroke-miterlimit="10" stroke-linecap="round" stroke-linejoin="round"/>
<path d="M13.4067 39.7716L17.8121 31.6184H39.5101L43.9154 39.7716H13.4067Z" stroke="#1385FF" stroke-width="1.5" stroke-miterlimit="10" stroke-linecap="round" stroke-linejoin="round"/>
<path d="M48.3198 42.4016V47.1357C48.3198 48.5822 47.1363 49.7658 45.6898 49.7658H11.6305C10.184 49.7658 9.00049 48.5822 9.00049 47.1357V42.4016H48.3198Z" stroke="#1385FF" stroke-width="1.5" stroke-miterlimit="10" stroke-linecap="round" stroke-linejoin="round"/>
<path d="M13.2739 46.084H25.7009" stroke="#1385FF" stroke-width="1.5" stroke-miterlimit="10" stroke-linecap="round" stroke-linejoin="round"/>
<path d="M36.2212 46.084H37.4705" stroke="#1385FF" stroke-width="1.5" stroke-miterlimit="10" stroke-linecap="round" stroke-linejoin="round"/>
<path d="M39.5093 46.084H40.7586" stroke="#1385FF" stroke-width="1.5" stroke-miterlimit="10" stroke-linecap="round" stroke-linejoin="round"/>
<path d="M42.7969 46.084H44.0462" stroke="#1385FF" stroke-width="1.5" stroke-miterlimit="10" stroke-linecap="round" stroke-linejoin="round"/>
</svg>
